<svg class="dn" height="0" version="1.1" width="0"
  xmlns="http://www.w3.org/2000/svg">
  <defs>
    <g id="hpa-cart">
      <path fill="currentColor" d="M15,6h-1.4l-2.7-5.4C10.6,0.1,10-0.1,9.6,0.1C9.1,0.4,8.9,1,9.1,1.4L11.4,6H4.6l2.3-4.6 c0.2-0.5,0-1.1-0.4-1.3C6-0.1,5.4,0.1,5.1,0.6L2.4,6H1c-1.1,0-1.1,1-0.9,1.4l3,8C3.2,15.7,3.6,16,4,16h8c0.4,0,0.8-0.3,0.9-0.6l3-8 C16.1,7,16,6,15,6z"></path>
      <!-- <path d="M15.0503 3.0002H4.92647C4.81221 3.00072 4.7012 2.96234 4.6118 2.89142C4.52239 2.8205 4.45996 2.72129 4.43483 2.6102L4.01342 0.800203C3.96651 0.570928 3.84041 0.365306 3.65708 0.219131C3.47375 0.0729566 3.24479 -0.00451449 3.01006 0.000203439H0.501677C0.368624 0.000203439 0.241021 0.0528819 0.146938 0.14665C0.0528551 0.240418 0 0.367595 0 0.500203L0 1.5002C0 1.63281 0.0528551 1.75999 0.146938 1.85376C0.241021 1.94753 0.368624 2.0002 0.501677 2.0002H1.80604C1.92077 1.9978 2.03274 2.03548 2.12253 2.10671C2.21232 2.17794 2.27429 2.27823 2.29768 2.3902L4.01342 10.2002C4.06032 10.4295 4.18642 10.6351 4.36975 10.7813C4.55308 10.9274 4.78204 11.0049 5.01677 11.0002H13.0436C13.2478 10.9891 13.4436 10.9161 13.605 10.791C13.7664 10.6659 13.8856 10.4947 13.9466 10.3002L15.9533 4.3002C15.9995 4.15468 16.0116 4.00057 15.9888 3.84965C15.9659 3.69874 15.9088 3.55504 15.8216 3.42956C15.7344 3.30408 15.6196 3.20015 15.4859 3.12573C15.3522 3.0513 15.2032 3.00837 15.0503 3.0002Z" fill="currentColor"/>
      <path d="M5.02682 16.0002C6.13509 16.0002 7.03353 15.1048 7.03353 14.0002C7.03353 12.8956 6.13509 12.0002 5.02682 12.0002C3.91855 12.0002 3.02011 12.8956 3.02011 14.0002C3.02011 15.1048 3.91855 16.0002 5.02682 16.0002Z" fill="currentColor"/>
      <path d="M13.0737 16.0002C14.182 16.0002 15.0804 15.1048 15.0804 14.0002C15.0804 12.8956 14.182 12.0002 13.0737 12.0002C11.9655 12.0002 11.067 12.8956 11.067 14.0002C11.067 15.1048 11.9655 16.0002 13.0737 16.0002Z" fill="currentColor"/> -->
    </g>
    <g id="hpa-search">
        <path fill="currentColor" d="M4,13H1c-0.552,0-1-0.448-1-1v0c0-0.552,0.448-1,1-1h3V13z"></path>
        <path fill="currentColor" d="M15,3H1C0.448,3,0,2.552,0,2v0c0-0.552,0.448-1,1-1h14c0.552,0,1,0.448,1,1v0C16,2.552,15.552,3,15,3z"></path>
        <path fill="currentColor" d="M4,8H1C0.448,8,0,7.552,0,7v0c0-0.552,0.448-1,1-1h3V8z"></path>
        <path fill="currentColor" d="M15.707,13.293l-2.274-2.274C13.785,10.424,14,9.74,14,9c0-2.206-1.794-4-4-4S6,6.794,6,9 s1.794,4,4,4c0.74,0,1.424-0.215,2.019-0.567l2.274,2.274L15.707,13.293z M10,11c-1.103,0-2-0.897-2-2s0.897-2,2-2s2,0.897,2,2 S11.103,11,10,11z"></path>

      <!-- <path d="M15.707 13.293L13 10.586C13.63 9.536 14 8.311 14 7C14 3.14 10.859 0 7 0C3.141 0 0 3.14 0 7C0 10.86 3.141 14 7 14C8.312 14 9.536 13.631 10.586 13L13.293 15.707C13.488 15.902 13.744 16 14 16C14.256 16 14.512 15.902 14.707 15.707L15.707 14.707C16.098 14.316 16.098 13.684 15.707 13.293ZM7 12C4.239 12 2 9.761 2 7C2 4.239 4.239 2 7 2C9.761 2 12 4.239 12 7C12 9.761 9.761 12 7 12Z" fill="currentColor"/> -->
    </g>
  </defs>
</svg>